HIERARCHY
ROOT Hips
{
	OFFSET 0.000000 0.000000 0.000000
	CHANNELS 6 Xposition Yposition Zposition Zrotation Yrotation Xrotation 
	JOINT LHipJoint
	{
		OFFSET 0.000000 0.000000 0.000000
		CHANNELS 3 Zrotation Yrotation Xrotation
		JOINT LeftUpLeg
		{
			OFFSET 1.363060 -1.794630 0.839290
			CHANNELS 3 Zrotation Yrotation Xrotation
			JOINT LeftLeg
			{
				OFFSET 2.448110 -6.726130 0.000000
				CHANNELS 3 Zrotation Yrotation Xrotation
				JOINT LeftFoot
				{
					OFFSET 2.562200 -7.039590 0.000000
					CHANNELS 3 Zrotation Yrotation Xrotation
					JOINT LeftToeBase
					{
						OFFSET 0.157640 -0.433110 2.322550
						CHANNELS 3 Zrotation Yrotation Xrotation
						End Site
						{
							OFFSET 0.000000 0.000000 0.000000
						}
					}
				}
			}
		}
	}
	JOINT RHipJoint
	{
		OFFSET 0.000000 0.000000 0.000000
		CHANNELS 3 Zrotation Yrotation Xrotation
		JOINT RightUpLeg
		{
			OFFSET -1.305520 -1.794630 0.839290
			CHANNELS 3 Zrotation Yrotation Xrotation
			JOINT RightLeg
			{
				OFFSET -2.542530 -6.985550 0.000000
				CHANNELS 3 Zrotation Yrotation Xrotation
				JOINT RightFoot
				{
					OFFSET -2.568260 -7.056230 0.000000
					CHANNELS 3 Zrotation Yrotation Xrotation
					JOINT RightToeBase
					{
						OFFSET -0.164730 -0.452590 2.363150
						CHANNELS 3 Zrotation Yrotation Xrotation
						End Site
						{
							OFFSET 0.000000 0.000000 0.000000
						}
					}
				}
			}
		}
	}
	JOINT LowerBack
	{
		OFFSET 0.000000 0.000000 0.000000
		CHANNELS 3 Zrotation Yrotation Xrotation
		JOINT Spine
		{
			OFFSET 0.028270 2.035590 -0.193380
			CHANNELS 3 Zrotation Yrotation Xrotation
			JOINT Spine1
			{
				OFFSET 0.056720 2.048850 -0.042750
				CHANNELS 3 Zrotation Yrotation Xrotation
				JOINT Neck
				{
					OFFSET 0.000000 0.000000 0.000000
					CHANNELS 3 Zrotation Yrotation Xrotation
					JOINT Neck1
					{
						OFFSET -0.054170 1.746240 0.172020
						CHANNELS 3 Zrotation Yrotation Xrotation
						JOINT Head
						{
							OFFSET 0.104070 1.761360 -0.123970
							CHANNELS 3 Zrotation Yrotation Xrotation
							End Site
							{
								OFFSET 0.000000 0.000000 0.000000
							}
						}
					}
				}
				JOINT LeftShoulder
				{
					OFFSET 0.000000 0.000000 0.000000
					CHANNELS 3 Zrotation Yrotation Xrotation
					JOINT LeftArm
					{
						OFFSET 3.362410 1.200890 -0.311210
						CHANNELS 3 Zrotation Yrotation Xrotation
						JOINT LeftForeArm
						{
							OFFSET 4.983000 -0.000000 -0.000000
							CHANNELS 3 Zrotation Yrotation Xrotation
							JOINT LeftHand
							{
								OFFSET 3.483560 -0.000000 -0.000000
								CHANNELS 3 Zrotation Yrotation Xrotation
								JOINT LeftFingerBase
								{
									OFFSET 0.000000 0.000000 0.000000
									CHANNELS 3 Zrotation Yrotation Xrotation
									JOINT LeftHandIndex1
									{
										OFFSET 0.715260 -0.000000 -0.000000
										CHANNELS 3 Zrotation Yrotation Xrotation
										End Site
										{
											OFFSET 0.000000 0.000000 0.000000
										}
									}
								}
								JOINT LThumb
								{
									OFFSET 0.000000 0.000000 0.000000
									CHANNELS 3 Zrotation Yrotation Xrotation
									End Site
									{
										OFFSET 0.000000 0.000000 0.000000
									}
								}
							}
						}
					}
				}
				JOINT RightShoulder
				{
					OFFSET 0.000000 0.000000 0.000000
					CHANNELS 3 Zrotation Yrotation Xrotation
					JOINT RightArm
					{
						OFFSET -3.136600 1.374050 -0.404650
						CHANNELS 3 Zrotation Yrotation Xrotation
						JOINT RightForeArm
						{
							OFFSET -5.241900 -0.000000 -0.000000
							CHANNELS 3 Zrotation Yrotation Xrotation
							JOINT RightHand
							{
								OFFSET -3.444170 -0.000000 -0.000000
								CHANNELS 3 Zrotation Yrotation Xrotation
								JOINT RightFingerBase
								{
									OFFSET 0.000000 0.000000 0.000000
									CHANNELS 3 Zrotation Yrotation Xrotation
									JOINT RightHandIndex1
									{
										OFFSET -0.622530 -0.000000 -0.000000
										CHANNELS 3 Zrotation Yrotation Xrotation
										End Site
										{
											OFFSET 0.000000 0.000000 0.000000
										}
									}
								}
								JOINT RThumb
								{
									OFFSET 0.000000 0.000000 0.000000
									CHANNELS 3 Zrotation Yrotation Xrotation
									End Site
									{
										OFFSET 0.000000 0.000000 0.000000
									}
								}
							}
						}
					}
				}
			}
		}
	}
}
MOTION
Frames: 6
Frame Time: 0.008333
3.189988 17.198282 0.866360 -170.709769 -85.092001 -175.607443 -11.392258 1.769346 1.104123 -4.089113 17.501529 -16.708016 -2.666892 -1.379978 -4.146773 0.423783 3.845200 3.364194 0.925000 -0.000000 -37.112900 9.371047 -1.613949 2.931095 3.908990 -2.338205 -13.472765 2.522522 1.705925 -0.785588 -0.087595 -4.341727 -1.504814 -1.701200 0.000000 -43.636000 1.199681 -1.346218 -5.206814 -0.197246 -1.542670 -3.623943 -5.816143 -1.329935 -0.057291 7.965559 -8.233882 -1.806966 -3.894922 -0.353876 1.594239 0.000000 0.000000 0.000000 12.806913 9.522351 -2.887663 -88.773224 -18.588067 18.980839 -178.292326 -50.598774 179.975385 1.388712 -7.698557 -0.098253 0.054005 1.206468 -0.000000 0.000000 0.000000 0.000000 0.000000 0.000000 0.000000 0.755705 -5.881811 -4.216677 86.365573 23.192940 26.384911 -179.377512 59.070581 179.884948 -7.535638 13.274659 -0.956865 0.067287 -1.074025 -0.000000 0.000000 0.000000 0.000000 0.000000 0.000000 0.000000 
3.190189 17.198505 0.865720 -170.573840 -85.426985 -175.769513 -11.377464 1.778441 1.161521 -4.093244 17.250679 -16.713670 -2.662836 -1.385329 -4.153625 0.411926 3.769639 3.412416 0.917500 -0.000000 -37.116201 9.387445 -1.623879 2.903555 3.905745 -2.518094 -13.432342 2.509049 1.702160 -0.744707 -0.098105 -4.489006 -1.577859 -1.733600 -0.000000 -43.607100 1.126124 -1.330563 -5.243241 -0.197124 -1.518323 -3.658056 -5.718772 -1.313641 -0.189996 7.867009 -7.945123 -1.582431 -3.894025 -0.355828 1.655626 0.000000 0.000000 0.000000 12.684946 9.343088 -2.844538 -88.827061 -18.594333 19.159012 -178.328798 -50.723313 179.974491 1.423281 -7.715337 -0.101079 0.054646 1.207384 -0.000000 0.000000 0.000000 0.000000 0.000000 0.000000 0.000000 0.807203 -5.585312 -4.250371 85.890719 23.877514 25.894944 -179.397716 59.639175 179.885241 -7.565963 13.128618 -0.950028 0.066453 -1.063039 -0.000000 0.000000 0.000000 0.000000 0.000000 0.000000 0.000000 
3.190875 17.198798 0.864997 -170.403786 -85.762494 -175.976080 -11.362651 1.786981 1.216278 -4.093021 17.004941 -16.707541 -2.658437 -1.390448 -4.159703 0.399982 3.695196 3.462293 0.910000 0.000000 -37.117199 9.404378 -1.635267 2.875075 3.902021 -2.696742 -13.378421 2.495057 1.697566 -0.707906 -0.109042 -4.636431 -1.646829 -1.765500 0.000001 -43.574900 1.046838 -1.308755 -5.276023 -0.196838 -1.486797 -3.694107 -5.608098 -1.290567 -0.333171 7.753880 -7.630180 -1.339660 -3.892407 -0.357906 1.721932 0.000000 0.000000 0.000000 12.547796 9.150017 -2.796561 -88.870843 -18.598243 19.340934 -178.367330 -50.845944 179.973694 1.446278 -7.733472 -0.103019 0.056108 1.208344 -0.000000 0.000000 0.000000 0.000000 0.000000 0.000000 0.000000 0.866361 -5.256233 -4.283124 85.352003 24.666759 25.361673 -179.422282 60.293313 179.886038 -7.574427 12.901043 -0.934507 0.064928 -1.048765 -0.000000 0.000000 0.000000 0.000000 0.000000 0.000000 0.000000 
3.192114 17.199160 0.864142 -170.205983 -86.098953 -176.220793 -11.347840 1.794952 1.268977 -4.088938 16.760970 -16.688356 -2.653410 -1.395544 -4.166976 0.388276 3.625033 3.514275 0.903300 0.000000 -37.115800 9.421768 -1.648115 2.845966 3.896681 -2.873043 -13.311952 2.480282 1.692008 -0.673857 -0.120639 -4.785164 -1.713512 -1.797000 0.000001 -43.539601 0.961225 -1.280233 -5.306033 -0.196577 -1.447494 -3.731608 -5.484422 -1.259896 -0.483872 7.625519 -7.288522 -1.081560 -3.889157 -0.360021 1.792337 0.000000 0.000000 0.000000 12.390095 8.955145 -2.744879 -88.902621 -18.616927 19.536534 -178.405150 -50.978085 179.973012 1.459274 -7.752469 -0.104172 0.058061 1.209343 -0.000000 0.000000 0.000000 0.000000 0.000000 0.000000 0.000000 0.934019 -4.893000 -4.314137 84.744241 25.569770 24.784218 -179.450840 61.044839 179.887499 -7.546098 12.583171 -0.908005 0.062167 -1.030954 -0.000000 0.000000 0.000000 0.000000 0.000000 0.000000 0.000000 
3.193943 17.199576 0.863159 -169.977710 -86.435935 -176.506588 -11.333026 1.802497 1.319630 -4.081551 16.519204 -16.656101 -2.647817 -1.400540 -4.174787 0.376800 3.558990 3.568196 0.897400 0.000000 -37.111199 9.439646 -1.662395 2.816377 3.889223 -3.046787 -13.233273 2.464653 1.685433 -0.641882 -0.132733 -4.935355 -1.778270 -1.828401 0.000000 -43.500300 0.868776 -1.245090 -5.333555 -0.195992 -1.400388 -3.770591 -5.345091 -1.221627 -0.641738 7.480045 -6.925091 -0.809758 -3.884300 -0.362177 1.866454 0.000000 0.000000 0.000000 12.213353 8.750518 -2.690587 -88.923934 -18.645739 19.739959 -178.444453 -51.118346 179.972422 1.462227 -7.770779 -0.104541 0.060665 1.210227 -0.000000 0.000000 0.000000 0.000000 0.000000 0.000000 0.000000 1.013518 -4.499826 -4.339929 84.056176 26.603782 24.170746 -179.483873 61.911278 179.889707 -7.476902 12.163478 -0.869823 0.058153 -1.009330 -0.000000 0.000000 0.000000 0.000000 0.000000 0.000000 0.000000 
3.196429 17.200011 0.862009 -169.734994 -86.773237 -176.818121 -11.318427 1.809586 1.368547 -4.071241 16.276011 -16.607527 -2.641217 -1.405635 -4.186403 0.366042 3.501646 3.624541 0.893200 -0.000000 -37.102800 9.457873 -1.677954 2.785833 3.878347 -3.218640 -13.141978 2.448019 1.677611 -0.610764 -0.145339 -5.086507 -1.842355 -1.859300 -0.000000 -43.457799 0.768843 -1.203073 -5.358226 -0.195102 -1.345119 -3.810397 -5.189619 -1.175223 -0.803963 7.316281 -6.541714 -0.527753 -3.877210 -0.364303 1.943314 0.000000 0.000000 0.000000 12.014266 8.542804 -2.635379 -88.934043 -18.696068 19.957453 -178.484269 -51.276316 179.971890 1.459202 -7.787305 -0.104424 0.063586 1.210895 -0.000000 0.000000 0.000000 0.000000 0.000000 0.000000 0.000000 1.107120 -4.077736 -4.357948 83.276837 27.780764 23.523481 -179.520155 62.911719 179.892715 -7.361247 11.641893 -0.819860 0.052674 -0.983970 -0.000000 0.000000 0.000000 0.000000 0.000000 0.000000 0.000000 
